# xmcd
#
# Track frame offsets:
#	150
#	13217
#	25358
#	40502
#	54502
#	69697
#	82385
#	95139
#	107009
#	119470
#	134184
#	151057
#	165852
#	182037
#	195960
#
# Disc length: 2709 seconds
#
# Revision: 1
# Processed by: cddbd v1.5.2PL0 Copyright (c) Steve Scherf et al.
# Submitted via: audiograbber 1.83.01
#
DISCID=cb0a930f
DTITLE=Verschiedene - Country Love Songs 
DYEAR=1900
DGENRE=Country
TTITLE0=Lynn Anderson  - Rose Garden
TTITLE1=Dolly Parton  - Making believe
TTITLE2=Billy Jo Spearcs - Blanket on the Ground
TTITLE3=Barbara Fairchild - Every Flower Has tou Have a Seed
TTITLE4=Billie Davis  - Angel of the Morning
TTITLE5=Connie Francis  - Thar'll by the Day
TTITLE6=Billie Jo Spearrs - What I've Got In Mind
TTITLE7=Barbara Fairchild - Cheatin' Is
TTITLE8=Lynn Anderson  - Stand by Your man 
TTITLE9=Connie Francis - Raining in my Heart
TTITLE10=Lynn Anderson  - Blue Bayou
TTITLE11=Billie Jo Spears - Sing mi an Old Fashioned Song 
TTITLE12=Lynn Anderson - Devil Went to Georgia 
TTITLE13=Billie Jo Spears - I Will Survive
TTITLE14=Dolly Parton  - Puppy Love
EXTD=
EXTT0=
EXTT1=
EXTT2=
EXTT3=
EXTT4=
EXTT5=
EXTT6=
EXTT7=
EXTT8=
EXTT9=
EXTT10=
EXTT11=
EXTT12=
EXTT13=
EXTT14=
PLAYORDER=
